<mxfile host="Electron" modified="2023-11-13T19:45:00.862Z" agent="Mozilla/5.0 (Macintosh; Intel Mac OS X 10_15_7) AppleWebKit/537.36 (KHTML, like Gecko) draw.io/22.0.3 Chrome/114.0.5735.289 Electron/25.8.4 Safari/537.36" etag="4SnLE--n1jwXmh3MzPN7" version="22.0.3" type="device">
  <diagram name="Page-1" id="ExuISKBQORq7WW6-63RC">
    <mxGraphModel dx="794" dy="478" grid="1" gridSize="10" guides="1" tooltips="1" connect="1" arrows="1" fold="1" page="1" pageScale="1" pageWidth="827" pageHeight="1169" math="0" shadow="0">
      <root>
        <mxCell id="0" />
        <mxCell id="1" parent="0" />
        <mxCell id="3rwE0EW5VHKjzHc-G4zL-39" value="" style="rounded=0;whiteSpace=wrap;html=1;fillColor=none;" vertex="1" parent="1">
          <mxGeometry x="40" y="40" width="480" height="330" as="geometry" />
        </mxCell>
        <mxCell id="3rwE0EW5VHKjzHc-G4zL-1" value="Amazon Polly" style="sketch=0;outlineConnect=0;fontColor=#232F3E;gradientColor=none;strokeColor=#ffffff;fillColor=#232F3E;dashed=0;verticalLabelPosition=middle;verticalAlign=bottom;align=center;html=1;whiteSpace=wrap;fontSize=10;fontStyle=1;spacing=3;shape=mxgraph.aws4.productIcon;prIcon=mxgraph.aws4.polly;" vertex="1" parent="1">
          <mxGeometry x="210" y="60" width="80" height="100" as="geometry" />
        </mxCell>
        <mxCell id="3rwE0EW5VHKjzHc-G4zL-2" value="Amazon S3" style="sketch=0;outlineConnect=0;fontColor=#232F3E;gradientColor=none;strokeColor=#ffffff;fillColor=#232F3E;dashed=0;verticalLabelPosition=middle;verticalAlign=bottom;align=center;html=1;whiteSpace=wrap;fontSize=10;fontStyle=1;spacing=3;shape=mxgraph.aws4.productIcon;prIcon=mxgraph.aws4.s3;" vertex="1" parent="1">
          <mxGeometry x="400" y="60" width="80" height="100" as="geometry" />
        </mxCell>
        <mxCell id="3rwE0EW5VHKjzHc-G4zL-4" value="Jump Host" style="sketch=0;outlineConnect=0;fontColor=#232F3E;gradientColor=none;strokeColor=#ffffff;fillColor=#232F3E;dashed=0;verticalLabelPosition=middle;verticalAlign=bottom;align=center;html=1;whiteSpace=wrap;fontSize=10;fontStyle=1;spacing=3;shape=mxgraph.aws4.productIcon;prIcon=mxgraph.aws4.ec2;" vertex="1" parent="1">
          <mxGeometry x="210" y="240" width="80" height="100" as="geometry" />
        </mxCell>
        <mxCell id="3rwE0EW5VHKjzHc-G4zL-23" value="" style="edgeStyle=orthogonalEdgeStyle;rounded=0;orthogonalLoop=1;jettySize=auto;html=1;endArrow=block;endFill=1;" edge="1" parent="1" source="3rwE0EW5VHKjzHc-G4zL-22" target="3rwE0EW5VHKjzHc-G4zL-4">
          <mxGeometry relative="1" as="geometry" />
        </mxCell>
        <mxCell id="3rwE0EW5VHKjzHc-G4zL-27" style="rounded=0;orthogonalLoop=1;jettySize=auto;html=1;endArrow=block;endFill=1;" edge="1" parent="1" source="3rwE0EW5VHKjzHc-G4zL-22" target="3rwE0EW5VHKjzHc-G4zL-1">
          <mxGeometry relative="1" as="geometry">
            <mxPoint x="80" y="170" as="sourcePoint" />
            <mxPoint x="140" y="30" as="targetPoint" />
          </mxGeometry>
        </mxCell>
        <mxCell id="3rwE0EW5VHKjzHc-G4zL-22" value="Client" style="sketch=0;outlineConnect=0;fontColor=#232F3E;gradientColor=none;strokeColor=#232F3E;fillColor=#ffffff;dashed=0;verticalLabelPosition=bottom;verticalAlign=top;align=center;html=1;fontSize=12;fontStyle=0;aspect=fixed;shape=mxgraph.aws4.resourceIcon;resIcon=mxgraph.aws4.client;" vertex="1" parent="1">
          <mxGeometry x="60" y="245" width="90" height="90" as="geometry" />
        </mxCell>
        <mxCell id="3rwE0EW5VHKjzHc-G4zL-24" value="Amazon RDS" style="sketch=0;outlineConnect=0;fontColor=#232F3E;gradientColor=none;strokeColor=#ffffff;fillColor=#232F3E;dashed=0;verticalLabelPosition=middle;verticalAlign=bottom;align=center;html=1;whiteSpace=wrap;fontSize=10;fontStyle=1;spacing=3;shape=mxgraph.aws4.productIcon;prIcon=mxgraph.aws4.rds;" vertex="1" parent="1">
          <mxGeometry x="400" y="240" width="80" height="100" as="geometry" />
        </mxCell>
        <mxCell id="3rwE0EW5VHKjzHc-G4zL-26" value="" style="edgeStyle=orthogonalEdgeStyle;rounded=0;orthogonalLoop=1;jettySize=auto;html=1;endArrow=block;endFill=1;" edge="1" parent="1" source="3rwE0EW5VHKjzHc-G4zL-4" target="3rwE0EW5VHKjzHc-G4zL-24">
          <mxGeometry relative="1" as="geometry">
            <mxPoint x="300" y="289.5" as="sourcePoint" />
            <mxPoint x="360" y="289.5" as="targetPoint" />
          </mxGeometry>
        </mxCell>
        <mxCell id="3rwE0EW5VHKjzHc-G4zL-28" style="rounded=0;orthogonalLoop=1;jettySize=auto;html=1;endArrow=block;endFill=1;" edge="1" parent="1" source="3rwE0EW5VHKjzHc-G4zL-1" target="3rwE0EW5VHKjzHc-G4zL-2">
          <mxGeometry relative="1" as="geometry">
            <mxPoint x="151" y="255" as="sourcePoint" />
            <mxPoint x="220" y="170" as="targetPoint" />
          </mxGeometry>
        </mxCell>
        <mxCell id="3rwE0EW5VHKjzHc-G4zL-31" value="&lt;font style=&quot;font-size: 24px;&quot; color=&quot;#ffffff&quot;&gt;1&lt;/font&gt;" style="ellipse;whiteSpace=wrap;html=1;aspect=fixed;fillColor=#000000;" vertex="1" parent="1">
          <mxGeometry x="160" y="310" width="30" height="30" as="geometry" />
        </mxCell>
        <mxCell id="3rwE0EW5VHKjzHc-G4zL-32" value="&lt;font style=&quot;font-size: 24px;&quot; color=&quot;#ffffff&quot;&gt;2&lt;/font&gt;" style="ellipse;whiteSpace=wrap;html=1;aspect=fixed;fillColor=#000000;" vertex="1" parent="1">
          <mxGeometry x="330" y="305" width="30" height="30" as="geometry" />
        </mxCell>
        <mxCell id="3rwE0EW5VHKjzHc-G4zL-33" value="&lt;font style=&quot;font-size: 24px;&quot; color=&quot;#ffffff&quot;&gt;3&lt;/font&gt;" style="ellipse;whiteSpace=wrap;html=1;aspect=fixed;fillColor=#000000;" vertex="1" parent="1">
          <mxGeometry x="180" y="200" width="30" height="30" as="geometry" />
        </mxCell>
        <mxCell id="3rwE0EW5VHKjzHc-G4zL-35" value="&lt;font style=&quot;font-size: 24px;&quot; color=&quot;#ffffff&quot;&gt;4&lt;/font&gt;" style="ellipse;whiteSpace=wrap;html=1;aspect=fixed;fillColor=#000000;" vertex="1" parent="1">
          <mxGeometry x="320" y="70" width="30" height="30" as="geometry" />
        </mxCell>
        <mxCell id="3rwE0EW5VHKjzHc-G4zL-37" style="rounded=0;orthogonalLoop=1;jettySize=auto;html=1;endArrow=none;endFill=0;startArrow=block;startFill=1;" edge="1" parent="1">
          <mxGeometry relative="1" as="geometry">
            <mxPoint x="130" y="240" as="sourcePoint" />
            <mxPoint x="199" y="155" as="targetPoint" />
          </mxGeometry>
        </mxCell>
        <mxCell id="3rwE0EW5VHKjzHc-G4zL-38" value="&lt;font style=&quot;font-size: 24px;&quot; color=&quot;#ffffff&quot;&gt;4&lt;/font&gt;" style="ellipse;whiteSpace=wrap;html=1;aspect=fixed;fillColor=#000000;" vertex="1" parent="1">
          <mxGeometry x="120" y="170" width="30" height="30" as="geometry" />
        </mxCell>
      </root>
    </mxGraphModel>
  </diagram>
</mxfile>
